<?xml version="1.0" encoding="iso-8859-1"?>
<!-- Uploaded to: SVG Repo, www.svgrepo.com, Generator: SVG Repo Mixer Tools -->
<svg version="1.1" id="Capa_1" xmlns="http://www.w3.org/2000/svg" xmlns:xlink="http://www.w3.org/1999/xlink" 
	 viewBox="0 0 459.238 459.238" xml:space="preserve">
<g>
	<path style="fill:#EA5F2F;" d="M445.1,252.614c16.05,31.69,7.8,70.28-19.81,92.64c-57.04,46.19-126.36,69.29-195.67,69.29
		s-138.63-23.1-195.68-69.29C15.78,330.544,6,308.814,6,286.644c0-11.54,2.64-23.19,8.14-34.03l15.6-30.79
		c-1.9,8.52-2.9,17.38-2.9,26.48c0,66.98,54.3,121.29,121.29,121.29c27.95,0,53.7-9.46,74.21-25.36c2.7,5.98,5.4,11.48,7.28,17.46
		c1.88-5.98,4.58-11.48,7.28-17.46c20.51,15.9,46.26,25.36,74.21,25.36c66.99,0,121.29-54.31,121.29-121.29c0-9.1-1-17.96-2.9-26.48
		L445.1,252.614z"/>
	<path style="fill:#F9CD16;" d="M429.5,221.824c1.9,8.52,2.9,17.38,2.9,26.48c0,66.98-54.3,121.29-121.29,121.29
		c-27.95,0-53.7-9.46-74.21-25.36c2.69-5.96,5.39-12.4,7.28-20.27c17.56,14.92,40.29,23.9,65.12,23.9
		c55.61,0,100.7-45.08,100.7-100.7c0-39.64-22.9-73.93-56.2-90.35l-0.01-0.01c8.02-9.03,17.4-20.02,26.64-31.83L429.5,221.824z"/>
	<path style="fill:#D16A0D;" d="M105.73,100.744c11.11,12.06,20.65,23.84,28.23,33.83c3.55,4.67,6.66,8.96,9.3,12.69
		c22.24-21.83,52.73-35.3,86.36-35.3s64.12,13.47,86.36,35.3c2.64-3.73,5.75-8.02,9.29-12.69c7.57-9.99,17.12-21.76,28.24-33.82
		c19.55-21.21,43.98-43.3,71.11-58.06c-1.43,22.32-22.47,54.57-44.19,82.28c-9.24,11.81-18.62,22.8-26.64,31.83
		c-1.53,1.73-3.02,3.38-4.44,4.96c-13.72,15.19-26.73,31-38.97,47.41l-5.31,7.12c-8.45-33.79-39.03-58.83-75.45-58.83
		s-67,25.04-75.45,58.83l-5.31-7.12c-12.24-16.41-25.25-32.22-38.97-47.41c-1.42-1.58-2.91-3.23-4.44-4.96
		c-8.02-9.03-17.4-20.02-26.64-31.83c-21.72-27.71-42.76-59.96-44.19-82.28C61.75,57.454,86.17,79.534,105.73,100.744z"/>
	<path style="fill:#F9A653;" d="M353.8,156.814c33.3,16.42,56.2,50.71,56.2,90.35c0,55.62-45.09,100.7-100.7,100.7
		c-24.83,0-47.56-8.98-65.12-23.9c1.92-7.97,3.01-17.4,2.44-29.27l24.39-32.72l0.32,0.24c8.74,15.16,25.12,25.36,43.88,25.36
		c27.98,0,50.66-22.69,50.66-50.66c0-4.9-0.7-9.61-2-14.09c-9.16-4.99-19.66-7.82-30.82-7.82c-5.41,0-10.69,0.67-15.73,1.93
		c-0.01,0-0.01,0-0.01,0c-6.36,1.6-12.33,4.13-17.78,7.46l-0.32-0.24l5.86-7.86l5.31-7.12c12.24-16.41,25.25-32.22,38.97-47.41
		c1.42-1.58,2.91-3.23,4.44-4.96L353.8,156.814z"/>
	<path style="fill:#F9CD16;" d="M363.87,222.824c1.3,4.48,2,9.19,2,14.09c0,27.97-22.68,50.66-50.66,50.66
		c-18.76,0-35.14-10.2-43.88-25.36l-0.32-0.24l18.06-24.22l3.22-4.32l6.92-9.28l0.32,0.24c5.45-3.33,11.42-5.86,17.78-7.46
		c0,0,0,0,0.01,0c5.04-1.26,10.32-1.93,15.73-1.93C344.21,215.004,354.71,217.834,363.87,222.824z M321.58,247.164
		c0-5.53-4.47-10-10-10c-5.52,0-10,4.47-10,10c0,5.52,4.48,10,10,10C317.11,257.164,321.58,252.684,321.58,247.164z"/>
	<path style="fill:#EA5F2F;" d="M353.51,100.754c-11.12,12.06-20.67,23.83-28.24,33.82c-24.91-23.67-58.58-38.2-95.65-38.2
		s-70.75,14.53-95.66,38.2c-7.58-9.99-17.12-21.77-28.23-33.83C175.59,35.874,283.66,35.874,353.51,100.754z"/>
	<path style="fill:#333333;" d="M311.58,237.164c5.53,0,10,4.47,10,10c0,5.52-4.47,10-10,10c-5.52,0-10-4.48-10-10
		C301.58,241.634,306.06,237.164,311.58,237.164z"/>
	<path style="fill:#F9CD16;" d="M325.27,134.574c-3.54,4.67-6.65,8.96-9.29,12.69c-22.24-21.83-52.73-35.3-86.36-35.3
		s-64.12,13.47-86.36,35.3c-2.64-3.73-5.75-8.02-9.3-12.69c24.91-23.67,58.59-38.2,95.66-38.2S300.36,110.904,325.27,134.574z"/>
	<path style="fill:#EA5F2F;" d="M305.07,216.294l-5.86,7.86l-6.92,9.28c-0.64-22.89-13.56-42.71-32.4-53.11
		c-8.97-4.96-19.29-7.78-30.27-7.78c-10.98,0-21.29,2.82-30.27,7.78c-18.84,10.4-31.76,30.21-32.41,53.1l-6.91-9.27l-5.86-7.86
		c8.45-33.79,39.03-58.83,75.45-58.83S296.62,182.504,305.07,216.294z"/>
	<path style="fill:#F9CD16;" d="M292.29,233.434l-3.22,4.32l-42.91-9.43l-0.01-0.01v-0.01l13.74-47.98
		C278.73,190.724,291.65,210.544,292.29,233.434z"/>
	<path style="fill:#D16A0D;" d="M289.07,237.754l-18.06,24.22l-24.39,32.72l-17-19l-17,19l-24.4-32.72l-18.05-24.22l49.51,14.46
		c0,0,0,0.01,0.01,0c2.87,1.84,6.27,2.9,9.93,2.9c3.66,0,7.07-1.06,9.94-2.9L289.07,237.754z"/>
	<path style="fill:#EA5F2F;" d="M289.07,237.754l-49.51,14.46c5.15-3.28,8.56-9.04,8.56-15.6c0-2.98-0.71-5.8-1.96-8.29
		L289.07,237.754z"/>
	<path style="fill:#EA5F2F;" d="M259.89,180.324l-13.74,47.98c-3.04-6.05-9.3-10.19-16.53-10.19L259.89,180.324z"/>
	<path style="fill:#F9CD16;" d="M259.89,180.324l-30.27,37.79l-30.27-37.79c8.98-4.96,19.29-7.78,30.27-7.78
		C240.6,172.544,250.92,175.364,259.89,180.324z"/>
	<path style="fill:#808080;" d="M246.62,294.694c0.57,11.87-0.52,21.3-2.44,29.27c-1.89,7.87-4.59,14.31-7.28,20.27
		c-2.7,5.98-5.4,11.48-7.28,17.46c-1.88-5.98-4.58-11.48-7.28-17.46c-2.69-5.96-5.39-12.4-7.28-20.27
		c-1.92-7.97-3.01-17.4-2.44-29.27l17-19L246.62,294.694z"/>
	<path style="fill:#5484EF;" d="M246.16,228.324c1.25,2.49,1.96,5.31,1.96,8.29c0,6.56-3.41,12.32-8.56,15.6
		c-2.87,1.84-6.28,2.9-9.94,2.9c-3.66,0-7.06-1.06-9.93-2.9c-0.01,0.01-0.01,0-0.01,0c-5.15-3.28-8.56-9.04-8.56-15.6
		c0-2.98,0.71-5.8,1.96-8.29c3.04-6.06,9.3-10.21,16.54-10.21c7.23,0,13.49,4.14,16.53,10.19v0.01v0.01H246.16z"/>
	<path style="fill:#EA5F2F;" d="M199.35,180.324l30.27,37.79c-7.24,0-13.5,4.15-16.54,10.21L199.35,180.324z"/>
	<path style="fill:#EA5F2F;" d="M219.68,252.214l-49.51-14.46l42.91-9.43c-1.25,2.49-1.96,5.31-1.96,8.29
		C211.12,243.174,214.53,248.934,219.68,252.214z"/>
	<path style="fill:#F9CD16;" d="M215.06,323.964c1.89,7.87,4.59,14.31,7.28,20.27c-20.51,15.9-46.26,25.36-74.21,25.36
		c-66.99,0-121.29-54.31-121.29-121.29c0-9.1,1-17.96,2.9-26.48l49.07-96.85c9.24,11.81,18.62,22.8,26.64,31.83l-0.01,0.01
		c-33.3,16.42-56.2,50.71-56.2,90.35c0,55.62,45.08,100.7,100.7,100.7C174.77,347.864,197.5,338.884,215.06,323.964z"/>
	<path style="fill:#F9CD16;" d="M199.35,180.324l13.73,48l-42.91,9.43h-0.01l-3.22-4.33
		C167.59,210.534,180.51,190.724,199.35,180.324z"/>
	<path style="fill:#F9A653;" d="M188.22,261.974l24.4,32.72c-0.57,11.87,0.52,21.3,2.44,29.27c-17.56,14.92-40.29,23.9-65.12,23.9
		c-55.62,0-100.7-45.08-100.7-100.7c0-39.64,22.9-73.93,56.2-90.35l0.01-0.01c1.53,1.73,3.02,3.38,4.44,4.96
		c13.72,15.19,26.73,31,38.97,47.41l5.31,7.12l5.86,7.86l-0.33,0.24c-5.44-3.33-11.41-5.86-17.77-7.46c0,0,0,0-0.01,0
		c-5.04-1.26-10.32-1.93-15.74-1.93c-11.16,0-21.65,2.83-30.81,7.82c-1.3,4.48-2,9.19-2,14.09c0,27.97,22.68,50.66,50.66,50.66
		c18.75,0,35.13-10.2,43.87-25.36L188.22,261.974z"/>
	<path style="fill:#F9CD16;" d="M170.17,237.754l18.05,24.22l-0.32,0.24c-8.74,15.16-25.12,25.36-43.87,25.36
		c-27.98,0-50.66-22.69-50.66-50.66c0-4.9,0.7-9.61,2-14.09c9.16-4.99,19.65-7.82,30.81-7.82c5.42,0,10.7,0.67,15.74,1.93
		c0.01,0,0.01,0,0.01,0c6.36,1.6,12.33,4.13,17.77,7.46l0.33-0.24l6.91,9.27l3.22,4.33H170.17z M157.65,247.164
		c0-5.53-4.47-10-10-10c-5.52,0-10,4.47-10,10c0,5.52,4.48,10,10,10C153.18,257.164,157.65,252.684,157.65,247.164z"/>
	<path style="fill:#333333;" d="M147.65,237.164c5.53,0,10,4.47,10,10c0,5.52-4.47,10-10,10c-5.52,0-10-4.48-10-10
		C137.65,241.634,142.13,237.164,147.65,237.164z"/>
	<path style="fill:none;stroke:#333333;stroke-width:8;stroke-linejoin:round;stroke-miterlimit:10;" d="M299.53,224.394
		c5.45-3.33,11.42-5.86,17.78-7.46c0,0,0,0,0.01,0c5.04-1.26,10.32-1.93,15.73-1.93c11.16,0,21.66,2.83,30.82,7.82
		c1.3,4.48,2,9.19,2,14.09c0,27.97-22.68,50.66-50.66,50.66c-18.76,0-35.14-10.2-43.88-25.36"/>
	<path style="fill:none;stroke:#333333;stroke-width:8;stroke-linejoin:round;stroke-miterlimit:10;" d="M187.9,262.214
		c-8.74,15.16-25.12,25.36-43.87,25.36c-27.98,0-50.66-22.69-50.66-50.66c0-4.9,0.7-9.61,2-14.09c9.16-4.99,19.65-7.82,30.81-7.82
		c5.42,0,10.7,0.67,15.74,1.93c0.01,0,0.01,0,0.01,0c6.36,1.6,12.33,4.13,17.77,7.46"/>
	<path style="fill:none;stroke:#333333;stroke-width:8;stroke-linejoin:round;stroke-miterlimit:10;" d="M157.65,247.164
		c0-5.53-4.47-10-10-10c-5.52,0-10,4.47-10,10c0,5.52,4.48,10,10,10C153.18,257.164,157.65,252.684,157.65,247.164z"/>
	<path style="fill:none;stroke:#333333;stroke-width:8;stroke-linejoin:round;stroke-miterlimit:10;" d="M321.58,247.164
		c0-5.53-4.47-10-10-10c-5.52,0-10,4.47-10,10c0,5.52,4.48,10,10,10C317.11,257.164,321.58,252.684,321.58,247.164z"/>
	<path style="fill:none;stroke:#333333;stroke-width:8;stroke-linejoin:round;stroke-miterlimit:10;" d="M105.44,156.814
		c-33.3,16.42-56.2,50.71-56.2,90.35c0,55.62,45.08,100.7,100.7,100.7c24.83,0,47.56-8.98,65.12-23.9"/>
	<path style="fill:none;stroke:#333333;stroke-width:8;stroke-linejoin:round;stroke-miterlimit:10;" d="M353.8,156.814
		c33.3,16.42,56.2,50.71,56.2,90.35c0,55.62-45.09,100.7-100.7,100.7c-24.83,0-47.56-8.98-65.12-23.9"/>
	<polyline style="fill:none;stroke:#333333;stroke-width:8;stroke-linejoin:round;stroke-miterlimit:10;" points="166.94,233.424 
		170.16,237.754 170.17,237.754 213.08,228.324 199.35,180.324 229.62,218.114 	"/>
	
		<line style="fill:none;stroke:#333333;stroke-width:8;stroke-linejoin:round;stroke-miterlimit:10;" x1="219.68" y1="252.214" x2="170.17" y2="237.754"/>
	<polyline style="fill:none;stroke:#333333;stroke-width:8;stroke-linejoin:round;stroke-miterlimit:10;" points="246.15,228.304 
		259.89,180.324 229.62,218.114 	"/>
	<polyline style="fill:none;stroke:#333333;stroke-width:8;stroke-linejoin:round;stroke-miterlimit:10;" points="239.56,252.214 
		289.07,237.754 246.16,228.324 246.15,228.324 246.15,228.314 	"/>
	<path style="fill:none;stroke:#333333;stroke-width:8;stroke-linecap:round;stroke-linejoin:round;stroke-miterlimit:10;" d="
		M143.26,147.264c22.24-21.83,52.73-35.3,86.36-35.3s64.12,13.47,86.36,35.3"/>
	<path style="fill:none;stroke:#333333;stroke-width:8;stroke-linecap:round;stroke-linejoin:round;stroke-miterlimit:10;" d="
		M154.17,216.294c8.45-33.79,39.03-58.83,75.45-58.83s67,25.04,75.45,58.83"/>
	<path style="fill:none;stroke:#333333;stroke-width:8;stroke-linecap:round;stroke-linejoin:round;stroke-miterlimit:10;" d="
		M166.94,233.424c0.65-22.89,13.57-42.7,32.41-53.1c8.98-4.96,19.29-7.78,30.27-7.78c10.98,0,21.3,2.82,30.27,7.78
		c18.84,10.4,31.76,30.22,32.4,53.11"/>
	<path style="fill:none;stroke:#333333;stroke-width:8;stroke-linecap:round;stroke-linejoin:round;stroke-miterlimit:10;" d="
		M246.16,228.324c1.25,2.49,1.96,5.31,1.96,8.29c0,6.56-3.41,12.32-8.56,15.6c-2.87,1.84-6.28,2.9-9.94,2.9
		c-3.66,0-7.06-1.06-9.93-2.9c-0.01,0.01-0.01,0-0.01,0c-5.15-3.28-8.56-9.04-8.56-15.6c0-2.98,0.71-5.8,1.96-8.29
		c3.04-6.06,9.3-10.21,16.54-10.21c7.23,0,13.49,4.14,16.53,10.19v0.01L246.16,228.324z"/>
	<path style="fill:#994C0D;" d="M285.874,112.252c-1.752,0-3.325-1.151-3.832-2.864l-13.379-45.171l-36.264,35.034
		c-1.551,1.498-4.008,1.498-5.559,0l-36.264-35.034l-13.379,45.171c-0.549,1.856-2.355,3.056-4.275,2.84l-67.639-7.499l0.881-7.951
		l64.313,7.13l14.301-48.285c0.396-1.341,1.465-2.376,2.817-2.732c1.348-0.356,2.791,0.02,3.797,0.992l38.227,36.93l38.227-36.93
		c1.006-0.972,2.45-1.347,3.797-0.992c1.352,0.356,2.421,1.392,2.817,2.732l14.301,48.285l64.313-7.13l0.881,7.951l-67.639,7.499
		C286.169,112.244,286.02,112.252,285.874,112.252z"/>
	<path style="fill:#994C0D;" d="M192.505,416.321c-0.216,0-0.432-0.017-0.648-0.053c-1.486-0.244-2.709-1.302-3.165-2.737
		l-12.934-40.735l-36.936,30.518c-1.027,0.849-2.412,1.129-3.685,0.751c-1.277-0.379-2.282-1.368-2.68-2.639l-8.977-28.633
		L90.78,384.907c-1.056,0.391-2.232,0.319-3.232-0.201c-1.001-0.52-1.736-1.438-2.024-2.528l-7.257-27.446l-22.657,9.243
		c-1.106,0.452-2.357,0.385-3.41-0.183c-1.053-0.568-1.796-1.577-2.025-2.75l-8.566-43.643l-22.75,12.013
		c-1.412,0.745-3.13,0.58-4.373-0.419c-1.244-0.999-1.775-2.642-1.352-4.18l12.313-44.747l-18.861-5.524l2.248-7.677l22.638,6.63
		c2.096,0.613,3.311,2.795,2.732,4.9l-10.903,39.624l19.328-10.206c1.119-0.591,2.45-0.617,3.592-0.072
		c1.142,0.545,1.958,1.598,2.201,2.839l8.667,44.152l22.371-9.126c1.065-0.434,2.264-0.39,3.296,0.124
		c1.029,0.513,1.788,1.445,2.082,2.557l7.295,27.588l32.518-12.046c1.027-0.38,2.167-0.323,3.151,0.16
		c0.984,0.483,1.728,1.348,2.055,2.395l8.456,26.974l36.918-30.503c1.024-0.847,2.405-1.129,3.678-0.754
		c1.275,0.376,2.28,1.36,2.683,2.627l12.344,38.877l32.46-44.275c0.753-1.028,1.951-1.635,3.226-1.635
		c1.274,0,2.473,0.607,3.226,1.635l32.459,44.275l12.345-38.877c0.402-1.267,1.407-2.251,2.683-2.627
		c1.272-0.375,2.652-0.094,3.678,0.754l36.917,30.503l8.455-26.974c0.328-1.046,1.071-1.912,2.056-2.395
		c0.984-0.483,2.124-0.54,3.151-0.16l32.518,12.046l7.295-27.588c0.294-1.112,1.053-2.044,2.082-2.557
		c1.031-0.514,2.232-0.558,3.296-0.124l22.372,9.126l8.666-44.152c0.243-1.241,1.06-2.294,2.201-2.839
		c1.14-0.545,2.474-0.519,3.591,0.072l19.33,10.206l-10.903-39.624c-0.579-2.105,0.637-4.286,2.732-4.9l22.637-6.63l2.248,7.677
		l-18.86,5.524l12.314,44.747c0.424,1.538-0.107,3.181-1.352,4.18c-1.244,0.999-2.961,1.165-4.373,0.419l-22.751-12.013
		l-8.565,43.643c-0.23,1.173-0.973,2.182-2.025,2.75c-1.053,0.568-2.305,0.635-3.41,0.183l-22.658-9.243l-7.257,27.446
		c-0.288,1.09-1.023,2.008-2.024,2.528c-1.001,0.52-2.174,0.592-3.233,0.201l-32.701-12.113l-8.976,28.633
		c-0.397,1.271-1.402,2.26-2.68,2.639c-1.271,0.378-2.656,0.098-3.685-0.751l-36.936-30.518l-12.935,40.735
		c-0.456,1.435-1.679,2.493-3.165,2.737c-1.489,0.243-2.983-0.368-3.873-1.582l-33.889-46.225l-33.89,46.225
		C194.969,415.724,193.765,416.321,192.505,416.321z"/>
	<path style="fill:none;stroke:#333333;stroke-width:12;stroke-linejoin:round;stroke-miterlimit:10;" d="M353.51,100.754
		c-69.85-64.88-177.92-64.88-247.78-0.01l-0.01,0.01"/>
	<path style="fill:none;stroke:#333333;stroke-width:12;stroke-linejoin:round;stroke-miterlimit:10;" d="M380.43,124.974
		l49.07,96.85l15.6,30.79c16.05,31.69,7.8,70.28-19.81,92.64c-57.04,46.19-126.36,69.29-195.67,69.29s-138.63-23.1-195.68-69.29
		C15.78,330.544,6,308.814,6,286.644c0-11.54,2.64-23.19,8.14-34.03l15.6-30.79l49.07-96.85"/>
	<path style="fill:none;stroke:#333333;stroke-width:8;stroke-linecap:round;stroke-linejoin:round;stroke-miterlimit:10;" d="
		M286.62,159.694c11.32,1.79,22.68-2.99,29.3-12.35c0.02-0.03,0.04-0.05,0.06-0.08c2.64-3.73,5.75-8.02,9.29-12.69
		c7.57-9.99,17.12-21.76,28.24-33.82c19.55-21.21,43.98-43.3,71.11-58.06c-1.43,22.32-22.47,54.57-44.19,82.28
		c-9.24,11.81-18.62,22.8-26.64,31.83c-1.53,1.73-3.02,3.38-4.44,4.96c-13.72,15.19-26.73,31-38.97,47.41l-5.31,7.12l-5.86,7.86
		l-6.92,9.28l-3.22,4.32l-18.06,24.22l-24.39,32.72l-17-19l-17,19l-24.4-32.72l-18.05-24.22"/>
	<path style="fill:none;stroke:#333333;stroke-width:8;stroke-linecap:round;stroke-linejoin:round;stroke-miterlimit:10;" d="
		M166.94,233.424l-6.91-9.27l-5.86-7.86l-5.31-7.12c-12.24-16.41-25.25-32.22-38.97-47.41c-1.42-1.58-2.91-3.23-4.44-4.96
		c-8.02-9.03-17.4-20.02-26.64-31.83c-21.72-27.71-42.76-59.96-44.19-82.28c27.13,14.76,51.55,36.84,71.11,58.05
		c11.11,12.06,20.65,23.84,28.23,33.83c3.55,4.67,6.66,8.96,9.3,12.69c0.02,0.03,0.04,0.05,0.06,0.08
		c6.61,9.36,17.98,14.14,29.3,12.35"/>
	<path style="fill:none;stroke:#333333;stroke-width:8;stroke-linejoin:round;stroke-miterlimit:10;" d="M429.5,221.824
		c1.9,8.52,2.9,17.38,2.9,26.48c0,66.98-54.3,121.29-121.29,121.29c-27.95,0-53.7-9.46-74.21-25.36"/>
	<path style="fill:none;stroke:#333333;stroke-width:8;stroke-linecap:round;stroke-linejoin:round;stroke-miterlimit:10;" d="
		M133.96,134.574c24.91-23.67,58.59-38.2,95.66-38.2s70.74,14.53,95.65,38.2"/>
	<path style="fill:none;stroke:#333333;stroke-width:8;stroke-linejoin:round;stroke-miterlimit:10;" d="M29.74,221.824
		c-1.9,8.52-2.9,17.38-2.9,26.48c0,66.98,54.3,121.29,121.29,121.29c27.95,0,53.7-9.46,74.21-25.36"/>
	<path style="fill:none;stroke:#333333;stroke-width:8;stroke-linejoin:round;stroke-miterlimit:10;" d="M212.62,294.694
		c-0.57,11.87,0.52,21.3,2.44,29.27c1.89,7.87,4.59,14.31,7.28,20.27c2.7,5.98,5.4,11.48,7.28,17.46
		c1.88-5.98,4.58-11.48,7.28-17.46c2.69-5.96,5.39-12.4,7.28-20.27c1.92-7.97,3.01-17.4,2.44-29.27"/>
</g>
</svg>